/* XPM */
static char *coll[] = {
/* columns rows colors chars-per-pixel */
"64 64 3 1 ",
"  c black",
". c #FA84FA",
"X c white",
/* pixels */
"                                                                ",
"                                                                ",
"                                                                ",
"                                                                ",
"                                                                ",
"                                                                ",
"                                                                ",
"                                                                ",
"                                                                ",
"                                                                ",
"                                                                ",
"                                                                ",
"                                                                ",
"                                                                ",
"                                                                ",
"                                                                ",
"                                                                ",
"                                                                ",
"                                                                ",
"                                                                ",
"                                                                ",
"                          XXXXXXXXXXX                           ",
"                          XXXXXXXXXXX                           ",
"                        XX....XXX....XX                         ",
"                        XX....XXX....XX                         ",
"                      XXXX....XXX....XXXX                       ",
"                      XXXX....XXX....XXXX                       ",
"                    XX....XXXXXXXXXXX....XX                     ",
"                    XX....XXXXXXXXXXX....XX                     ",
"                    XX....XX.......XX....XX                     ",
"                    XX....XX.......XX....XX                     ",
"                    XXXXXX...........XXXXXX                     ",
"                    XXXXXX...........XXXXXX                     ",
"                      XX...............XX                       ",
"                      XX...............XX                       ",
"                      XX...............XX                       ",
"                      XX...............XX                       ",
"                      XXXX....XXX....XXXX                       ",
"                      XXXX....XXX....XXXX                       ",
"                        XXXXXXXXXXXXXXX                         ",
"                        XXXXXXXXXXXXXXX                         ",
"                                                                ",
"                                                                ",
"                                                                ",
"                                                                ",
"                                                                ",
"                                                                ",
"                                                                ",
"                                                                ",
"                                                                ",
"                                                                ",
"                                                                ",
"                                                                ",
"                                                                ",
"                                                                ",
"                                                                ",
"                                                                ",
"                                                                ",
"                                                                ",
"                                                                ",
"                                                                ",
"                                                                ",
"                                                                ",
"                                                                "
};
