/* XPM */
static char *exit[] = {
/* columns rows colors chars-per-pixel */
"64 64 57 1 ",
"  c black",
". c #010101",
"X c #020202",
"o c gray1",
"O c #040404",
"+ c gray2",
"@ c gray11",
"# c #1D1D1D",
"$ c #1E1E1E",
"% c gray12",
"& c #202020",
"* c gray13",
"= c #222222",
"- c #232323",
"; c gray14",
": c #252525",
"> c gray15",
", c #3E3E3E",
"< c #3F3F3F",
"1 c gray25",
"2 c #414141",
"3 c gray26",
"4 c #434343",
"5 c #444444",
"6 c gray27",
"7 c #464646",
"8 c gray36",
"9 c #5D5D5D",
"0 c gray37",
"q c #5F5F5F",
"w c #606060",
"e c gray38",
"r c #626262",
"t c gray39",
"y c #646464",
"u c #656565",
"i c gray44",
"p c #717171",
"a c #727272",
"s c gray45",
"d c #747474",
"f c gray46",
"g c #767676",
"h c #777777",
"j c gray47",
"k c #797979",
"l c gray48",
"z c #B7B7B7",
"x c #B9B9B9",
"c c gray73",
"v c #BBBBBB",
"b c #BCBCBC",
"n c gray74",
"m c gray",
"M c gray75",
"N c #C0C0C0",
"B c #C3C3C3",
/* pixels */
"                                                                ",
"                                                                ",
"                                                                ",
"                                                                ",
"                                                                ",
"                                                                ",
"                                                                ",
"                                                                ",
"                                                                ",
"                                                                ",
"                                                                ",
"                                                                ",
"                                                                ",
"                                                                ",
"                                                                ",
"                                                                ",
"         ..  ..  X  . .  o.  .  . O . X  o. ...  .    .         ",
"        .  O  O .                .   X  X  X . X O  O           ",
"         o.    .  X ;*=%-&&-;=**&-&&***-*%;&..     X  X.        ",
"        X . X.....&;*qwtwttwwwqrr0teeywwwtq*=@=; o . .          ",
"        .. .. =%&%-qwy0tfagadkdffgdhg9fdtqwyttw&%.    X         ",
"        .    =&eyt0ewftdgnMbBzmncmbnsdhdateeewwe:$-Xo           ",
"         X .X=rwwa1lfhsffhfsdghgkgsfNnngjhffdjdeet&=  .         ",
"        . .  %efskh<3ffggsdhgdfsdf44sfbnmcmbmshfder$=-          ",
"         . .&;qsffd43shshsfhadhdfh3sggsffffafd43ffet9-..        ",
"          o*%0ufgff32dfjsjfsdkafga7hdfghfhsjg312ajw5r&          ",
"        .  **wfggdd32kpsgae63<53235<2452hafs53gfgs2<r$ .        ",
"        . ==yeafgas7316245w5fdfgdh27<ef313gd23dgsjder- .        ",
"         O%w9thggg621jsfddhshggphsggfgphh33227sffbdte$X         ",
"        o =yressg125qhdgfdgahfdjffddhghsfgatu1d25naqy=          ",
"         .;0eerhff43eeffgfgfshartdfhpffgdfhfa364bfjt0* .        ",
"          *qrrrdgd22531reqt44wreewedtshfffdgs5snffsgr&.         ",
"          ;-wwrdgsg4f243<53216322326334wrfs25ashgfstq&X         ",
"         X$#ttqedffshfhdhdflddphjahahah3<355dfjdffequ= .        ",
"        . %;*0rtrhffMagghdfagjgffdfdjgshkafshqewe0tew%          ",
"          >#*y9r4,gdfnmadffgfdghfgdjsvmbbmdftefgggrr0; X        ",
"        . &=*twequqegdgMngdfagbbmxNbnmdffffgpjdfsgst&%          ",
"        . *&;@*wewuwqtefakafhsfgfdgsfdgffghsjdsretqq;&o.        ",
"          **&;==*%rrywwqggdgdgdfgghfjgsrgihf8ree=$*=*-          ",
"         . **&*&**&=0rreewgshdfgffdfshfertwtt%-*&=**=$o         ",
"          X&=&=*=*%=&=&reeeeeeeeeeeeeeeew;%-%*&%=%*&=&          ",
"        o . ==&***-&*&$&****************-%&%=*;-:=&*=*.         ",
"           X.$&===#;;=;&****************$-;=-%=%@:%-= X         ",
"         + . o;&=%*=@&=*******************=@**$=**=   XX        ",
"          X    .  O &:&&****************-  X.. X.X X..          ",
"        X     .     X  .                         . X   o        ",
"         O . . X o X.o  ................   .X X   X  .X         ",
"         .  . X . .   .                  .. X      X . .        ",
"                                                                ",
"                                                                ",
"                                                                ",
"                                                                ",
"                                                                ",
"                                                                ",
"                                                                ",
"                                                                ",
"                                                                ",
"                                                                ",
"                                                                ",
"                                                                ",
"                                                                ",
"                                                                ",
"                                                                ",
"                                                                "
};
