/* XPM */
static char *player[] = {
/* columns rows colors chars-per-pixel */
"64 64 34 1 ",
"  c black",
". c #B4B4B4",
"X c #B4B5B4",
"o c #B4B4B5",
"O c #C8C8C8",
"+ c #C9C8C8",
"@ c #C8C9C8",
"# c #C8C8C9",
"$ c #D2D2D2",
"% c #D3D2D2",
"& c #D2D3D2",
"* c #D3D3D2",
"= c #D2D2D3",
"- c #D6D7D7",
"; c #D7D7D7",
": c gainsboro",
"> c #DDDCDC",
", c #E1E0E1",
"< c #E0E1E1",
"1 c #E1E1E1",
"2 c #E6E6E6",
"3 c #E7E6E6",
"4 c #E6E7E6",
"5 c #E6E6E7",
"6 c #E6E7E7",
"7 c gray94",
"8 c #F1F0F0",
"9 c #F0F1F0",
"0 c #F0F0F1",
"q c #FFFFFE",
"w c #FFFEFF",
"e c #FEFFFF",
"r c white",
"t c None",
/* pixels */
"tttttttttttttttttttttttttttttttttttttttttttttttttttttttttttttttt",
"tttttttttttttttttttttttttttttttttttttttttttttttttttttttttttttttt",
"tttttttttttttttttttttttttttttttttttttttttttttttttttttttttttttttt",
"tttttttttttttttttttttttttttttttttttttttttttttttttttttttttttttttt",
"tttttttttttttttttttttttttttttttttttttttttttttttttttttttttttttttt",
"tttttttttttttttttttttttttttttttttttttttttttttttttttttttttttttttt",
"tttttttttttttttttttttttttttttttttttttttttttttttttttttttttttttttt",
"tttttttttttttttttttttttttttttttttttttttttttttttttttttttttttttttt",
"tttttttttttttttttttttttttttttttttttttttttttttttttttttttttttttttt",
"ttttttttttttttttttttttttttttttrrrrrrttttttttttttqrrrtttttttttttt",
"ttttttttttttttttttttttttttttttrrrrrrttttttttttttrrrrtttttttttttt",
"ttttttttttttttttttttttttttttrrO@$%$$qrttttttttrrOO@#rwtttttttttt",
"tttttttttttttttttttttttttttterOO$$%$rrttttttttrqOOOOrrtttttttttt",
"ttttttttttttttttttttttttttttrrOO$$..OOrrttttrrOO..OOrrtttttttttt",
"ttttttttttttttttttttttttttttrrOO$$..O#rettttrrOO..OOretttttttttt",
"ttttttttttttttttttttttttttttrrOO$$....O+rrrrOO....@#rrtttttttttt",
"ttttttttttttttttttttttttttttrrOO$=o.o.OOrrrrOOX...OOretttttttttt",
"ttttttttttttttttttttttttttttrrOO$$......+@OO.X...XOOrrwrtttttttt",
"ttttttttttttttttttttttttttttrqO@$$......OOOO......OOrrertttttttt",
"ttttttttttttttttttttttttttttrrOOOO@O;;;;;;;;;;;;;;;;;;;;rwtttttt",
"ttttttttttttttttttttttttttttrrOOOOOO;;;;;;;;;-;;;;;;;;;;rrtttttt",
"ttttttttttttttttttttttttttttrrOOOOOO$$2422222222222222=$rrtttttt",
"ttttttttttttttttttttttttttttrrO@OO+O$$2222222222222222%$rrtttttt",
"ttttttttttttttttttttttttttttrrOOO+OO$=4222422222222222$=rrtttttt",
"ttttttttttttttttttttttttttttrrOO@OOO$$2222222226222522&$rrtttttt",
"ttttttttttttttttttttttttttttrrOOOOOO$$2222222222252232$$rrtttttt",
"tttttttttttttttttttttttttttteqOO@OOO$$2422224222422222$$rrtttttt",
"ttttttttttttttttttttttttttttrrOOOOOO$$2222222222222222$$wrtttttt",
"ttttttttttttttttttttttttttttrqO+OOO+&$2222224222222222$$rrtttttt",
"ttttttttttttttttttttttttttttrrOOO+OO$$25  2222222252  $$rrtttttt",
"ttttttttttttttttttttttttttttrrOOO#OO=$22  2222222522  &$rrtttttt",
"ttttttttttttttttttttttttttttrrOOOOOO$$42  2222322222  $$rrtttttt",
"ttttttttttttttttttttttttttttrrOOO@OO$$22  2522222223  $$rrtttttt",
"ttttttttttttrrrqrrrrrrrrrrrr11OO77787725222424rrrr2222777779tttt",
"ttttttttttttrrrrrerrrrrrrrrr11OO77777722222222wrrr2222787777tttt",
"ttttttttttrrOOOO+OOOOOOOOO@O11OOOOOO::2222222522224322$$rrtttttt",
"ttttttttttrrOOOOOOOOOO@OOOOO11O@OOOO>:2522222222222222%$qrtttttt",
"ttttttttttttrrrrrrrrrrrOOOOO11OO777777$$$$$$$$$*$$$&$$770977tttt",
"ttttttttttttrrrrrqrrrrwOOOOO11OO777877$$$&$$$$$$$$$&$$877777tttt",
"tttttttttttttttttttttrrOOOOO@O111111111111<1111111wwrrrqtttttttt",
"tttttttttttttttttttttrrOOOOOOO111<1111111,11111111rrrrrrtttttttt",
"tttttttttttttttttttttrrOOOO+#OOOOOOO242222222222rwtttttttttttttt",
"tttttttttttttttttttttreOOOOOOOOOOOOO222222222222rrtttttttttttttt",
"tttttttttttttttttttttrrOOOOOOOOOOOOO262222224222rrtttttttttttttt",
"tttttttttttttttttttttrr+OOOOOOOO+OOO222222222322rrtttttttttttttt",
"tttttttttttttttttttttrwOO::rrrrrrO@O22rerwwrO+52rrtttttttttttttt",
"tttttttttttttttttttttrw#O::rrrrerOOO42rrrrrrOO22rrtttttttttttttt",
"tttttttttttttttttttttrrOO::rrttrrOOO22rrttrrOO22rrtttttttttttttt",
"tttttttttttttttttttttrqOO::rrttrrOOO22rrtterOO22retttttttttttttt",
"tttttttttttttttttttttttttttttttttttttttttttttttttttttttttttttttt",
"tttttttttttttttttttttttttttttttttttttttttttttttttttttttttttttttt",
"tttttttttttttttttttttttttttttttttttttttttttttttttttttttttttttttt",
"tttttttttttttttttttttttttttttttttttttttttttttttttttttttttttttttt",
"tttttttttttttttttttttttttttttttttttttttttttttttttttttttttttttttt",
"tttttttttttttttttttttttttttttttttttttttttttttttttttttttttttttttt",
"tttttttttttttttttttttttttttttttttttttttttttttttttttttttttttttttt",
"tttttttttttttttttttttttttttttttttttttttttttttttttttttttttttttttt",
"tttttttttttttttttttttttttttttttttttttttttttttttttttttttttttttttt",
"tttttttttttttttttttttttttttttttttttttttttttttttttttttttttttttttt",
"tttttttttttttttttttttttttttttttttttttttttttttttttttttttttttttttt",
"tttttttttttttttttttttttttttttttttttttttttttttttttttttttttttttttt",
"tttttttttttttttttttttttttttttttttttttttttttttttttttttttttttttttt",
"tttttttttttttttttttttttttttttttttttttttttttttttttttttttttttttttt",
"tttttttttttttttttttttttttttttttttttttttttttttttttttttttttttttttt"
};
