/* XPM */
static char *wall[] = {
/* columns rows colors chars-per-pixel */
"64 64 9 1 ",
"  c black",
". c #2D5B6B",
"X c #347C96",
"o c #279AC4",
"O c #289EC9",
"+ c #2AA6D4",
"@ c #0FB7F5",
"# c #00BBFF",
"$ c #1EBFFA",
/* pixels */
"                                                                ",
"                                                                ",
"                                                                ",
"                                                                ",
"                                                                ",
"                                                                ",
"                                                                ",
"                                                                ",
"                                                                ",
"                                                                ",
"                                                                ",
"                                                                ",
"                                                                ",
"                                                                ",
"                                                                ",
"                                                                ",
"                                                                ",
"                                                                ",
"                                                                ",
"                                                                ",
"                                                                ",
"                                                                ",
"                                                                ",
"                                                                ",
"                           oooooooooXXXXX                       ",
"                          oooooooooooooooXXX                    ",
"                        ooooooooo####ooooooX                    ",
"             ooooooooooooooo#############ooXXX                  ",
"            +++++$$$$ooooo###############ooooXX                 ",
"           o$$$$$$$########################ooooX                ",
"           ooo#######$################@@@@ooooX.                ",
"           ++oo####$$$####$#####@@@@@@@@ooooXX.                 ",
"            OOo##$$$$$$$$$#############ooooXX.                  ",
"             Ooo##$#####################oooo.                   ",
"             O$$$$$$$####################ooX                    ",
"           +++++########$$$$$$############oooX.                 ",
"          +O+oo###########################oooo.                 ",
"          Ooo$$$############################oooo.               ",
"         oooooo$$$####################@@@@###ooXXX.             ",
"         +oooo@@################@@@@@@@@ooooooXXXX.             ",
"         +++o$$$$$$$$######@@@@@@@####ooooXXXXXX...             ",
"          +++ooooooooooooooooooooooooooXXXXX......              ",
"           +++++OooooooooooooooooooXXXXX......                  ",
"                 +++++oooooooXXXXXXX                            ",
"                                                                ",
"                                                                ",
"                                                                ",
"                                                                ",
"                                                                ",
"                                                                ",
"                                                                ",
"                                                                ",
"                                                                ",
"                                                                ",
"                                                                ",
"                                                                ",
"                                                                ",
"                                                                ",
"                                                                ",
"                                                                ",
"                                                                ",
"                                                                ",
"                                                                ",
"                                                                "
};
